<?xml version="1.0" encoding="UTF-8"?>
<svg width="40px" height="40px" viewBox="0 0 40 40" version="1.1" xmlns="http://www.w3.org/2000/svg" xmlns:xlink="http://www.w3.org/1999/xlink">
    <!-- Generator: Sketch 54 (76480) - https://sketchapp.com -->
    <title>24/basic-cross-framed</title>
    <desc>Created with Sketch.</desc>
    <defs>
        <path d="M24,44 C18.6956702,44 13.6085919,41.8928632 9.85786438,38.1421356 C6.10713681,34.3914081 4,29.3043298 4,24 C4,12.954 12.954,4 24,4 C35.046,4 44,12.954 44,24 C44,35.046 35.046,44 24,44 Z M23.968,31.6 C22.6437102,31.5360904 21.3411805,31.9546338 20.302,32.778 C19.8568471,33.2424453 19.1977302,33.4341242 18.5729323,33.2808331 C17.9481345,33.1275419 17.4525773,32.6525694 17.2729323,32.034833 C17.0932874,31.4170967 17.2568471,30.7504453 17.702,30.286 C19.4473775,28.7905117 21.6756616,27.9783532 23.974,28 C26.2988663,27.9157635 28.5660373,28.7350415 30.3,30.286 C30.7451529,30.7504453 30.9087126,31.4170967 30.7290677,32.034833 C30.5494227,32.6525694 30.0538655,33.1275419 29.4290677,33.2808331 C28.8042698,33.4341242 28.1451529,33.2424453 27.7,32.778 C26.6327188,31.959674 25.3116748,31.5426885 23.968,31.6 L23.968,31.6 Z M29,24 C27.3431458,24 26,22.6568542 26,21 C26,19.3431458 27.3431458,18 29,18 C30.6568542,18 32,19.3431458 32,21 C32,22.6568542 30.6568542,24 29,24 Z M19,24 C17.3431458,24 16,22.6568542 16,21 C16,19.3431458 17.3431458,18 19,18 C20.6568542,18 22,19.3431458 22,21 C22,22.6568542 20.6568542,24 19,24 Z M24,8 C15.1675562,8.00991977 8.00991977,15.1675562 8,24 C8,32.836556 15.163444,40 24,40 C32.836556,40 40,32.836556 40,24 C40,15.163444 32.836556,8 24,8 Z" id="path-1"></path>
    </defs>
    <g id="Playground" stroke="none" stroke-width="1" fill="none" fill-rule="evenodd">
        <g id="Output-Stripe-Copy" transform="translate(-264.000000, -140.000000)">
            <g id="Contrast-ratio" transform="translate(236.000000, 32.000000)">
                <g id="Checks" transform="translate(24.000000, 104.000000)">
                    <g id="Check---Normal-text">
                        <g id="24/emo-sad">
                            <mask id="mask-2" fill="white">
                                <use xlink:href="#path-1"></use>
                            </mask>
                            <g id="icons/24emo-sad" fill-rule="nonzero"></g>
                            <g id="x_icon/default" mask="url(#mask-2)" fill="#D93A3F" fill-rule="evenodd">
                                <rect id="Rectangle" x="0" y="0" width="48" height="48"></rect>
                            </g>
                        </g>
                    </g>
                </g>
            </g>
        </g>
    </g>
</svg>